<svg width="960" height="640" viewBox="0 0 960 640" fill="none" xmlns="http://www.w3.org/2000/svg">
  <defs>
    <linearGradient id="helmet-bg" x1="120" y1="520" x2="840" y2="120" gradientUnits="userSpaceOnUse">
      <stop offset="0%" stop-color="#0b1221" />
      <stop offset="100%" stop-color="#18263a" />
    </linearGradient>
    <linearGradient id="helmet-stripe" x1="0" y1="0" x2="1" y2="1" gradientUnits="objectBoundingBox">
      <stop offset="0%" stop-color="#38bdf8" />
      <stop offset="50%" stop-color="#6366f1" />
      <stop offset="100%" stop-color="#f97316" />
    </linearGradient>
  </defs>

  <rect width="960" height="640" rx="32" fill="url(#helmet-bg)" />

  <g transform="translate(200 160)">
    <path
      d="M280 40C400 40 480 120 520 220L560 340C566 360 552 380 532 380H180C160 380 146 360 152 340L192 220C232 120 300 40 420 40H280Z"
      fill="#020617"
      stroke="#0f172a"
      stroke-width="4"
    />
    <path d="M240 200H520" stroke="url(#helmet-stripe)" stroke-width="28" stroke-linecap="round" />
    <circle cx="260" cy="300" r="30" fill="#0f172a" stroke="#38bdf8" stroke-width="6" />
    <circle cx="500" cy="300" r="30" fill="#0f172a" stroke="#f97316" stroke-width="6" />
  </g>

  <text x="240" y="470" fill="#f8fafc" font-family="'Inter', 'Helvetica Neue', Arial" font-size="40" font-weight="600">
    HELMET / EQUIPMENT GRAPHICS
  </text>
  <text x="240" y="510" fill="#94a3b8" font-family="'Inter', 'Helvetica Neue', Arial" font-size="22" letter-spacing="0.28em">
    DURABLE DECAL FINISHES
  </text>
</svg>
