<svg width="960" height="640" viewBox="0 0 960 640" fill="none" xmlns="http://www.w3.org/2000/svg">
  <defs>
    <linearGradient id="vehicle-bg" x1="80" y1="560" x2="840" y2="80" gradientUnits="userSpaceOnUse">
      <stop offset="0%" stop-color="#020617" />
      <stop offset="100%" stop-color="#111827" />
    </linearGradient>
    <linearGradient id="vehicle-accent" x1="240" y1="320" x2="720" y2="260" gradientUnits="userSpaceOnUse">
      <stop offset="0%" stop-color="#f97316" />
      <stop offset="50%" stop-color="#facc15" />
      <stop offset="100%" stop-color="#38bdf8" />
    </linearGradient>
  </defs>

  <rect width="960" height="640" rx="36" fill="url(#vehicle-bg)" />
  <path
    d="M200 420C200 350 260 280 340 280H640C720 280 780 340 780 420C780 430 772 440 760 440H220C208 440 200 430 200 420Z"
    fill="#1f2937"
  />
  <path
    d="M240 420C240 362 292 320 352 320H628C688 320 740 362 740 420C740 434 730 444 716 444H272C258 444 240 434 240 420Z"
    fill="#0f172a"
  />
  <rect x="280" y="320" width="360" height="70" rx="24" fill="url(#vehicle-accent)" />

  <circle cx="320" cy="440" r="68" fill="#020617" />
  <circle cx="320" cy="440" r="44" fill="#111827" stroke="#38bdf8" stroke-width="4" />
  <circle cx="640" cy="440" r="68" fill="#020617" />
  <circle cx="640" cy="440" r="44" fill="#111827" stroke="#f97316" stroke-width="4" />

  <text x="260" y="250" fill="#e2e8f0" font-family="'Inter', 'Helvetica Neue', Arial" font-size="44" font-weight="600">
    VEHICLE WRAP
  </text>
  <text x="260" y="290" fill="#94a3b8" font-family="'Inter', 'Helvetica Neue', Arial" font-size="20" letter-spacing="0.32em">
    CUSTOM GRAPHICS
  </text>

  <path d="M180 380H220" stroke="#38bdf8" stroke-width="8" stroke-linecap="round" opacity="0.7" />
  <path d="M740 380H780" stroke="#f97316" stroke-width="8" stroke-linecap="round" opacity="0.7" />

  <circle cx="180" cy="150" r="18" fill="#38bdf8" opacity="0.6" />
  <circle cx="780" cy="520" r="14" fill="#facc15" opacity="0.7" />
</svg>
