<svg width="960" height="640" viewBox="0 0 960 640" fill="none" xmlns="http://www.w3.org/2000/svg">
  <defs>
    <linearGradient id="decal-bg" x1="160" y1="100" x2="800" y2="540" gradientUnits="userSpaceOnUse">
      <stop offset="0%" stop-color="#0b1120" />
      <stop offset="100%" stop-color="#111b2b" />
    </linearGradient>
    <linearGradient id="stripe" x1="0" y1="0" x2="1" y2="1" gradientUnits="objectBoundingBox">
      <stop offset="0%" stop-color="#38bdf8" />
      <stop offset="50%" stop-color="#6366f1" />
      <stop offset="100%" stop-color="#f97316" />
    </linearGradient>
  </defs>

  <rect width="960" height="640" rx="32" fill="url(#decal-bg)" />
  <rect x="140" y="160" width="680" height="320" rx="28" fill="#0f172a" />
  <rect x="200" y="220" width="560" height="200" rx="22" fill="#020617" />

  <path
    d="M220 260H700C724 260 740 276 740 300V340C740 364 724 380 700 380H220C196 380 180 364 180 340V300C180 276 196 260 220 260Z"
    fill="#111b2b"
  />

  <rect x="240" y="280" width="420" height="60" rx="16" fill="url(#stripe)" />

  <text x="240" y="250" fill="#f8fafc" font-family="'Inter', 'Helvetica Neue', Arial" font-size="38" font-weight="600" letter-spacing="0.04em">
    DECAL KIT
  </text>
  <text x="240" y="360" fill="#cbd5f5" font-family="'Inter', 'Helvetica Neue', Arial" font-size="22" font-weight="500" letter-spacing="0.24em">
    CUT &amp; LAYERED GRAPHICS
  </text>

  <circle cx="760" cy="200" r="24" fill="#38bdf8" opacity="0.35" />
  <circle cx="180" cy="420" r="18" fill="#f97316" opacity="0.35" />
</svg>
